<?xml version="1.0" encoding="utf-8"?>
<!-- Generator: Adobe Illustrator 22.0.1, SVG Export Plug-In . SVG Version: 6.00 Build 0)  -->
<svg version="1.1" id="Layer_1" xmlns="http://www.w3.org/2000/svg" xmlns:xlink="http://www.w3.org/1999/xlink" x="0px" y="0px"
	 viewBox="0 0 504 504" style="enable-background:new 0 0 504 504;" xml:space="preserve">
<style type="text/css">
	.st0{fill:#7ECE7C;}
	.st1{fill:#B98D82;}
	.st2{fill:#257F25;}
</style>
<g>
	<polygon class="st0" points="252,22.3 177.4,173.5 10.4,197.8 131.2,315.5 102.7,481.7 252,403.3 	"/>
	<polygon class="st1" points="252,22.3 326.6,173.5 493.6,197.8 372.8,315.5 401.3,481.7 252,403.3 	"/>
	<path class="st2" d="M252,24.5l73.5,149l0.5,0.9l1,0.2l164.4,23.9l-119,116l-0.8,0.7l0.2,1L400,479.9l-147-77.3l-0.9-0.5l-0.9,0.5
		l-147,77.3l28.1-163.7l0.2-1l-0.8-0.7l-119-116L177,174.6l1-0.2l0.5-0.9L252,24.5 M252,20l-75.3,152.6L8.3,197.1l121.9,118.8
		l-28.8,167.7L252,404.4l150.6,79.2l-28.8-167.7l121.9-118.8l-168.4-24.5L252,20L252,20z"/>
</g>
</svg>
